<svg width="71" height="63" viewBox="0 0 71 63" fill="none" xmlns="http://www.w3.org/2000/svg">
<path d="M61.4503 26.7715L57.4033 16.2511C56.8163 14.7197 55.687 13.3876 54.1761 12.444C52.6652 11.5004 50.8495 10.9933 48.9869 10.9947H22.0128C20.1502 10.9933 18.3344 11.5004 16.8235 12.444C15.3126 13.3876 14.1834 14.7197 13.5963 16.2511L9.54934 26.7715C8.47432 27.1623 7.55624 27.8191 6.91004 28.6597C6.26385 29.5003 5.91825 30.4874 5.9165 31.4974V44.3115C5.9165 46.2414 7.16788 47.9046 8.99021 48.7786C8.95175 48.9477 8.87484 49.1015 8.87484 49.2783V54.5629C8.87484 55.2426 9.18652 55.8945 9.74131 56.3751C10.2961 56.8557 11.0486 57.1257 11.8332 57.1257H14.7915C15.5761 57.1257 16.3286 56.8557 16.8834 56.3751C17.4382 55.8945 17.7498 55.2426 17.7498 54.5629V49.4372H53.2498V54.5629C53.2498 55.2426 53.5615 55.8945 54.1163 56.3751C54.6711 56.8557 55.4236 57.1257 56.2082 57.1257H59.1665C59.9511 57.1257 60.7036 56.8557 61.2584 56.3751C61.8132 55.8945 62.1248 55.2426 62.1248 54.5629V49.2783C62.1248 49.1015 62.0479 48.9451 62.0095 48.7786C62.9366 48.3407 63.711 47.6951 64.2517 46.9093C64.7924 46.1235 65.0795 45.2263 65.0832 44.3115V31.4974C65.0832 29.3728 63.5803 27.548 61.4503 26.7715ZM11.8332 44.3115V31.4974H59.1665L59.1724 44.3115H11.8332ZM22.0128 16.1204H48.9839C50.259 16.1204 51.389 16.8226 51.7914 17.8733L55.0633 26.3717H15.9364L19.2053 17.8733C19.4016 17.3628 19.7784 16.9188 20.2823 16.6041C20.7862 16.2895 21.3916 16.1202 22.0128 16.1204Z" fill="#39281F"/>
<path d="M19.229 41.7487C21.6798 41.7487 23.6665 40.0276 23.6665 37.9044C23.6665 35.7813 21.6798 34.0602 19.229 34.0602C16.7782 34.0602 14.7915 35.7813 14.7915 37.9044C14.7915 40.0276 16.7782 41.7487 19.229 41.7487Z" fill="#39281F"/>
<path d="M51.771 41.7487C54.2218 41.7487 56.2085 40.0276 56.2085 37.9044C56.2085 35.7813 54.2218 34.0602 51.771 34.0602C49.3202 34.0602 47.3335 35.7813 47.3335 37.9044C47.3335 40.0276 49.3202 41.7487 51.771 41.7487Z" fill="#39281F"/>
</svg>
