<svg width="42" height="42" viewBox="0 0 42 42" fill="none" xmlns="http://www.w3.org/2000/svg">
<path d="M39.8572 39.4268V31.5645H32.3995V7.92296H30.1544V3.50272H22.2858V0H19.7143V3.50263H11.8457V7.92279H9.60061V31.5643H2.14282V39.4267H0V42H2.14282H9.60053H12.172H13.7959H28.204H29.828H32.3994H39.8571H42V39.4267L39.8572 39.4268ZM9.60061 39.4269H4.71425V34.1378H9.60053L9.60061 39.4269ZM14.4172 6.076H27.5828V7.92287H14.4172V6.076ZM17.796 39.4269H16.3674V14.8924H17.796V39.4269ZM21.7674 39.4268H20.3675V14.8924H21.7674V39.4268ZM25.6326 39.4268H24.3388V14.8924H25.6326V39.4268ZM29.828 31.5644V39.4268H28.204V12.3191H13.7959V39.4268H12.172V31.5644V10.4962H29.8279L29.828 31.5644ZM37.2857 39.4269H32.3995V34.1378H37.2857V39.4269Z" fill="#979797"/>
</svg>
