<svg width="58" height="52" viewBox="0 0 58 52" fill="none" xmlns="http://www.w3.org/2000/svg">
<path d="M32.5834 49.5343V40.2308C32.5834 38.9685 33.6334 37.9461 34.928 37.9461C39.5477 37.9461 42.0609 33.3293 42.4097 24.2156H34.928C33.6336 24.2156 32.5834 23.1917 32.5834 21.9308V2.2862C32.5834 1.02434 33.6334 0.00191676 34.928 0.00191676H54.8752C56.1695 0.00191676 57.22 1.02546 57.22 2.2862V21.931C57.22 26.2994 56.7674 30.3081 55.879 33.8485C54.9663 37.4779 53.5653 40.6509 51.7158 43.2804C49.8137 45.9825 47.4323 48.1029 44.642 49.5796C41.8304 51.0658 38.5623 51.82 34.9271 51.82C33.6336 51.819 32.5834 50.7957 32.5834 49.5343ZM2.34418 37.9453C1.04973 37.9453 0 38.9685 0 40.2291V49.5344C0 50.7957 1.04973 51.8182 2.34418 51.8182C5.97758 51.8182 9.24741 51.0638 12.0571 49.5779C14.849 48.1013 17.23 45.9827 19.132 43.2786C20.9826 40.6492 22.3834 37.476 23.2961 33.8449C24.185 30.3045 24.6366 26.2956 24.6366 21.9291V2.28429C24.6366 1.02243 23.5859 0 22.292 0H2.34418C1.04973 0 0 1.02339 0 2.28429V21.9291C0 23.1908 1.04973 24.2138 2.34418 24.2138H9.7208C9.37625 33.3283 6.89929 37.9453 2.34418 37.9453Z" fill="#39281F" fill-opacity="0.5"/>
</svg>
