<svg width="71" height="69" viewBox="0 0 71 69" fill="none" xmlns="http://www.w3.org/2000/svg">
<path fill-rule="evenodd" clip-rule="evenodd" d="M38.7808 3.87557C38.7808 2.93932 38.4351 2.04143 37.8198 1.3794C37.2044 0.71738 36.3698 0.345459 35.4996 0.345459C34.6293 0.345459 33.7948 0.71738 33.1794 1.3794C32.564 2.04143 32.2183 2.93932 32.2183 3.87557V9.75908H27.9133C26.579 9.75908 25.2708 10.1356 24.1115 10.8416L18.4765 14.3106C18.31 14.413 18.1214 14.4666 17.9296 14.4659H8.15584C7.2856 14.4659 6.451 14.8378 5.83565 15.4998C5.22029 16.1619 4.87459 17.0597 4.87459 17.996C4.87459 18.9322 5.22029 19.8301 5.83565 20.4922C6.451 21.1542 7.2856 21.5261 8.15584 21.5261H10.0283L0.788341 43.6105C0.51542 44.2638 0.433704 44.991 0.554044 45.6955C0.674384 46.4 0.991087 47.0485 1.46209 47.5548L3.78084 45.0601L1.46209 47.5548V47.5595L1.47084 47.5689L1.47959 47.5783L1.50584 47.6065L1.57584 47.6771L1.77272 47.8654C2.69283 48.6951 3.70011 49.4059 4.77397 49.9835C7.52893 51.4285 10.5599 52.1603 13.6246 52.1204C17.4746 52.1204 20.4321 51.0849 22.4752 49.9835C23.5491 49.4059 24.5563 48.695 25.4765 47.8654L25.6733 47.6771L25.7433 47.6065L25.7696 47.5783L25.7783 47.5689L25.7827 47.5595L23.4683 45.0601L25.7871 47.5548C26.2581 47.0485 26.5748 46.4 26.6951 45.6955C26.8155 44.991 26.7338 44.2638 26.4608 43.6105L17.2208 21.5261H17.9296C19.264 21.5261 20.5721 21.1496 21.7315 20.4435L27.3708 16.9746C27.536 16.8729 27.723 16.8194 27.9133 16.8193H32.2183V61.534H21.2808C20.4106 61.534 19.576 61.9059 18.9606 62.5679C18.3453 63.2299 17.9996 64.1278 17.9996 65.0641C17.9996 66.0003 18.3453 66.8982 18.9606 67.5602C19.576 68.2223 20.4106 68.5942 21.2808 68.5942H49.7183C50.5886 68.5942 51.4232 68.2223 52.0385 67.5602C52.6539 66.8982 52.9996 66.0003 52.9996 65.0641C52.9996 64.1278 52.6539 63.2299 52.0385 62.5679C51.4232 61.9059 50.5886 61.534 49.7183 61.534H38.7808V16.8193H43.0858C43.2762 16.8194 43.4631 16.8729 43.6283 16.9746L49.2721 20.4388C50.4271 21.1543 51.7352 21.5261 53.0696 21.5261H53.7783L44.5383 43.6105C44.2654 44.2638 44.1837 44.991 44.304 45.6955C44.4244 46.4 44.7411 47.0485 45.2121 47.5548L47.5308 45.0601L45.2121 47.5548V47.5595L45.2208 47.5689L45.2296 47.5783L45.2558 47.6065L45.3258 47.6771L45.5227 47.8654C46.4429 48.695 47.4502 49.4058 48.524 49.9835C51.2789 51.4285 54.3099 52.1603 57.3746 52.1204C61.2246 52.1204 64.1821 51.0849 66.2252 49.9835C67.2991 49.406 68.3064 48.6951 69.2265 47.8654L69.4233 47.6771L69.4671 47.6301L69.4933 47.6065L69.5196 47.5783L69.5283 47.5689L69.5327 47.5595L67.2183 45.0601L69.5371 47.5548C70.0081 47.0485 70.3248 46.4 70.4451 45.6955C70.5655 44.991 70.4838 44.2638 70.2108 43.6105L60.9752 21.5261H62.8433C63.7136 21.5261 64.5482 21.1542 65.1635 20.4922C65.7789 19.8301 66.1246 18.9322 66.1246 17.996C66.1246 17.0597 65.7789 16.1619 65.1635 15.4998C64.5482 14.8378 63.7136 14.4659 62.8433 14.4659H53.0696C52.8793 14.4658 52.6923 14.4122 52.5271 14.3106L46.8833 10.8463C45.7283 10.1354 44.4209 9.7607 43.0902 9.75908H38.7808V3.87557ZM7.91522 43.7752C9.16209 44.4106 11.0565 45.0601 13.6246 45.0601C16.1927 45.0601 18.0871 44.4106 19.334 43.7752L13.6246 30.1254L7.91522 43.7752ZM51.6652 43.7752C52.9121 44.4106 54.8065 45.0601 57.3746 45.0601C59.9427 45.0601 61.8371 44.4106 63.084 43.7752L57.3746 30.1254L51.6652 43.7752Z" fill="white"/>
</svg>
