<svg width="27" height="27" viewBox="0 0 27 27" fill="none" xmlns="http://www.w3.org/2000/svg">
<path d="M26.9189 25.0593L18.154 16.2944C19.5142 14.5361 20.2499 12.3862 20.2499 10.125C20.2499 7.41822 19.1935 4.88023 17.2833 2.96661C15.3731 1.053 12.8283 0 10.125 0C7.42159 0 4.87685 1.05637 2.96661 2.96661C1.053 4.87685 0 7.41822 0 10.125C0 12.8283 1.05637 15.3731 2.96661 17.2833C4.87685 19.1969 7.41822 20.2499 10.125 20.2499C12.3862 20.2499 14.5327 19.5142 16.2911 18.1574L25.0559 26.9189C25.0816 26.9446 25.1121 26.965 25.1457 26.9789C25.1793 26.9928 25.2153 27 25.2516 27C25.288 27 25.324 26.9928 25.3576 26.9789C25.3912 26.965 25.4217 26.9446 25.4474 26.9189L26.9189 25.4508C26.9446 25.4251 26.965 25.3945 26.9789 25.361C26.9928 25.3274 27 25.2914 27 25.255C27 25.2187 26.9928 25.1827 26.9789 25.1491C26.965 25.1155 26.9446 25.085 26.9189 25.0593ZM15.4709 15.4709C14.0399 16.8986 12.1432 17.6849 10.125 17.6849C8.10671 17.6849 6.20997 16.8986 4.77898 15.4709C3.35136 14.0399 2.56499 12.1432 2.56499 10.125C2.56499 8.10671 3.35136 6.2066 4.77898 4.77898C6.20997 3.35136 8.10671 2.56499 10.125 2.56499C12.1432 2.56499 14.0433 3.34799 15.4709 4.77898C16.8986 6.20997 17.6849 8.10671 17.6849 10.125C17.6849 12.1432 16.8986 14.0433 15.4709 15.4709Z" fill="#39281F"/>
</svg>
