<svg width="132" height="133" viewBox="0 0 132 133" fill="none" xmlns="http://www.w3.org/2000/svg">
<path d="M65.7344 1.32812C74.3145 1.32812 82.5433 4.73658 88.6104 10.8037C94.6775 16.8708 98.0859 25.0995 98.0859 33.6797C98.0859 42.2599 94.6775 50.4886 88.6104 56.5557C82.5433 62.6228 74.3145 66.0312 65.7344 66.0312C57.1542 66.0312 48.9255 62.6228 42.8584 56.5557C36.7913 50.4886 33.3828 42.2599 33.3828 33.6797C33.3828 25.0995 36.7913 16.8708 42.8584 10.8037C48.9255 4.73658 57.1542 1.32812 65.7344 1.32812ZM65.7344 83.457C83.8241 83.457 100.17 87.1211 111.975 93.0236C123.81 98.941 130.938 107.025 130.938 115.809V131.734H0.53125V115.809C0.53125 107.025 7.65872 98.941 19.4936 93.0236C31.2986 87.1211 47.6446 83.457 65.7344 83.457Z" fill="#E1E6EA" stroke="black"/>
</svg>
