<svg width="10" height="18" viewBox="0 0 10 18" fill="none" xmlns="http://www.w3.org/2000/svg">
<path d="M7.37303e-07 4.95C7.94688e-07 3.63718 0.526785 2.37813 1.46447 1.44982C2.40215 0.521516 3.67392 -2.76522e-07 5 -2.18557e-07C6.32608 -1.60592e-07 7.59785 0.521516 8.53553 1.44982C9.47322 2.37813 10 3.63718 10 4.95L10 14.4C10 15.3548 9.61688 16.2705 8.93493 16.9456C8.25298 17.6207 7.32806 18 6.36364 18C5.39921 18 4.47429 17.6207 3.79234 16.9456C3.11039 16.2705 2.72727 15.3548 2.72727 14.4L2.72727 6.75C2.72727 6.15326 2.96672 5.58097 3.39294 5.15901C3.81916 4.73705 4.39724 4.5 5 4.5C5.60276 4.5 6.18084 4.73705 6.60706 5.15901C7.03328 5.58097 7.27273 6.15326 7.27273 6.75L7.27273 13.5L5.90909 13.5L5.90909 6.75C5.90909 6.5113 5.81331 6.28239 5.64282 6.1136C5.47234 5.94482 5.24111 5.85 5 5.85C4.75889 5.85 4.52766 5.94482 4.35718 6.1136C4.18669 6.28239 4.09091 6.5113 4.09091 6.75L4.09091 14.4C4.09091 14.6955 4.14969 14.9881 4.26391 15.261C4.37812 15.534 4.54553 15.7821 4.75658 15.991C4.96762 16.1999 5.21816 16.3657 5.4939 16.4787C5.76964 16.5918 6.06518 16.65 6.36364 16.65C6.66209 16.65 6.95763 16.5918 7.23337 16.4787C7.50911 16.3657 7.75965 16.1999 7.9707 15.991C8.18174 15.7821 8.34915 15.534 8.46336 15.261C8.57758 14.9881 8.63636 14.6955 8.63636 14.4L8.63636 4.95C8.63636 3.99522 8.25325 3.07955 7.5713 2.40442C6.88935 1.72928 5.96442 1.35 5 1.35C4.03558 1.35 3.11065 1.72928 2.4287 2.40442C1.74675 3.07955 1.36364 3.99522 1.36364 4.95L1.36364 13.5L3.63571e-07 13.5L7.37303e-07 4.95Z" fill="#AE965A"/>
</svg>
