<svg width="73" height="73" viewBox="0 0 73 73" fill="none" xmlns="http://www.w3.org/2000/svg">
<path d="M1.55689 36.1828C1.55518 42.3365 3.17031 48.3452 6.24144 53.6414L1.26318 71.7367L19.8645 66.8812C25.0094 69.6695 30.7738 71.1306 36.6317 71.1309H36.6471C55.985 71.1309 71.7264 55.4653 71.7347 36.2103C71.7384 26.8799 68.0918 18.1061 61.4665 11.5053C54.8423 4.90496 46.0324 1.26811 36.6457 1.26385C17.3055 1.26385 1.56516 16.9286 1.55718 36.1828" fill="url(#paint0_linear_1_359)"/>
<path d="M0.305117 36.1714C0.303121 42.5466 1.97613 48.7702 5.15677 54.256L0 73L19.2683 67.9704C24.5773 70.8521 30.5548 72.3715 36.6372 72.3737H36.6528C56.6845 72.3737 72.9914 56.1447 73 36.2004C73.0034 26.5347 69.2257 17.4455 62.3637 10.6082C55.5008 3.77169 46.3758 0.00397438 36.6528 0C16.6178 0 0.313387 16.2268 0.305402 36.1714H0.305117ZM11.7798 53.3112L11.0604 52.1742C8.03599 47.3868 6.43968 41.8545 6.44196 36.1737C6.44852 19.5963 20.0003 6.10919 36.6642 6.10919C44.7342 6.1126 52.3182 9.24441 58.0225 14.9266C63.7264 20.6094 66.8652 28.1636 66.8632 36.1981C66.8557 52.7755 53.3037 66.2643 36.6528 66.2643H36.6409C31.2192 66.2614 25.9019 64.8119 21.2647 62.0727L20.1611 61.4212L8.72692 64.4057L11.7798 53.3109V53.3112Z" fill="url(#paint1_linear_1_359)"/>
<path d="M27.5676 21.0494C26.8872 19.544 26.1712 19.5136 25.5242 19.4872C24.9943 19.4645 24.3887 19.4662 23.7836 19.4662C23.1779 19.4662 22.1938 19.693 21.362 20.5972C20.5294 21.5022 18.1831 23.6893 18.1831 28.1375C18.1831 32.5859 21.4376 36.8848 21.8913 37.4886C22.3455 38.0913 28.1741 47.5117 37.4052 51.1358C45.077 54.1475 46.6383 53.5485 48.3033 53.3975C49.9686 53.247 53.6768 51.211 54.4333 49.0998C55.1904 46.9888 55.1904 45.1793 54.9634 44.8012C54.7364 44.4245 54.1308 44.1982 53.2225 43.7463C52.314 43.294 47.849 41.1067 47.0167 40.805C46.184 40.5035 45.5786 40.353 44.973 41.2583C44.3673 42.1622 42.6281 44.1982 42.098 44.8012C41.5685 45.4056 41.0384 45.4808 40.1304 45.0286C39.2216 44.5749 36.2968 43.6214 32.8267 40.5415C30.1269 38.145 28.3042 35.1855 27.7743 34.2802C27.2445 33.3763 27.7176 32.8863 28.173 32.4358C28.581 32.0307 29.0815 31.38 29.536 30.8522C29.9889 30.3242 30.14 29.9475 30.4428 29.3445C30.7459 28.741 30.5942 28.213 30.3675 27.7607C30.14 27.3085 28.3752 22.8373 27.5676 21.0497" fill="white"/>
<defs>
<linearGradient id="paint0_linear_1_359" x1="36.4989" y1="71.7367" x2="36.4989" y2="1.26385" gradientUnits="userSpaceOnUse">
<stop stop-color="#AE965A"/>
<stop offset="1" stop-color="#AE965A"/>
</linearGradient>
<linearGradient id="paint1_linear_1_359" x1="36.5" y1="73" x2="36.5" y2="0" gradientUnits="userSpaceOnUse">
<stop stop-color="#F9F9F9"/>
<stop offset="1" stop-color="white"/>
</linearGradient>
</defs>
</svg>
